<?xml version="1.0" encoding="utf-8"?>
<!-- Generator: Adobe Illustrator 16.0.0, SVG Export Plug-In . SVG Version: 6.00 Build 0)  -->
<!DOCTYPE svg PUBLIC "-//W3C//DTD SVG 1.1//EN" "http://www.w3.org/Graphics/SVG/1.1/DTD/svg11.dtd">
<svg version="1.1" id="Layer_1" xmlns="http://www.w3.org/2000/svg" xmlns:xlink="http://www.w3.org/1999/xlink" x="0px" y="0px"
	 width="120px" height="100px" viewBox="-30 -20 120 100" enable-background="new -30 -20 120 100" xml:space="preserve">
<path fill="#FFFFFF" d="M56.813,41.84H31.141c-5.648,0-10.267,4.929-10.267,10.954v8.051c0,6.022,4.621,10.954,10.267,10.954h25.672
	c5.647,0,10.267-4.932,10.267-10.954v-8.051C67.079,46.769,62.46,41.84,56.813,41.84z M29.373,37.559
	c5.73,0,10.377-4.956,10.377-11.072c0-6.111-4.645-11.069-10.377-11.069C23.645,15.417,19,20.375,19,26.486
	C19,32.603,23.645,37.559,29.373,37.559z M29.375,21.37c2.649,0,4.799,2.292,4.799,5.119c0,2.826-2.149,5.122-4.799,5.122
	c-2.65,0-4.799-2.294-4.799-5.122S26.724,21.37,29.375,21.37z M69.967,55.083v3.472L82,66.32V47.318L69.967,55.083z M54.885,8.799
	c-7.443,0-13.477,6.438-13.477,14.381c0,7.942,6.033,14.379,13.477,14.379c7.444,0,13.479-6.439,13.479-14.379
	C68.363,15.238,62.332,8.799,54.885,8.799z M54.885,28.57c-2.791,0-5.052-2.413-5.052-5.391c0-2.978,2.261-5.393,5.052-5.393
	c2.792,0,5.055,2.414,5.055,5.393C59.939,26.158,57.677,28.57,54.885,28.57z"/>
</svg>
