<?xml version="1.0" encoding="utf-8"?>
<!-- Generator: Adobe Illustrator 16.0.0, SVG Export Plug-In . SVG Version: 6.00 Build 0)  -->
<!DOCTYPE svg PUBLIC "-//W3C//DTD SVG 1.1//EN" "http://www.w3.org/Graphics/SVG/1.1/DTD/svg11.dtd">
<svg version="1.1" id="Layer_1" xmlns="http://www.w3.org/2000/svg" xmlns:xlink="http://www.w3.org/1999/xlink" x="0px" y="0px"
	 width="63px" height="63px" viewBox="0 0 63 63" enable-background="new 0 0 63 63" xml:space="preserve">
<path fill="#FFFFFF" d="M70.045,16.664c-0.002,0.744-0.029,2.734-0.078,5.637c-0.175,11.184-0.697,44.658-0.104,49.029l0.006,0.006
	l0.109,0.428c0.063,0.217,0.785,2.392,3.815,2.392c1.265,0,3.205-1.955,3.205-4.365V16.664H70.045z M57.616,25.909h-0.024
	l-0.7,3.776h1.449L57.616,25.909z M25.589,26.989c0-0.653-0.214-1.151-1.021-1.151h-0.513v2.222h0.548
	C25.399,28.06,25.589,27.56,25.589,26.989z M32.299,26.835c0-0.63-0.237-1.068-1.033-1.068h-0.606v2.174h0.618
	C32.084,27.94,32.299,27.346,32.299,26.835z M66.971,22.23c0.033-2.219,0.027-1.871,0.073-4.903c0.043-3.036-1.563-3.15-1.563-3.15
	c-0.109-0.003-0.185-0.021-0.303-0.021H18.685c-0.461,0-1.685,0-1.685,3.218v50.804c0,1.539,1.61,5.978,4.685,5.978h45.956
	c-0.211-0.404-0.348-0.752-0.427-0.986C66.618,71.701,66.296,65.602,66.971,22.23z M56.403,24.364h2.495l2.113,8.481h-2.066
	l-0.308-1.615h-2.031l-0.299,1.615h-2.066L56.403,24.364z M48.186,30.257h1.924v0.296c0,0.643,0.167,1.13,0.867,1.13
	c0.702,0,0.903-0.523,0.903-1.011c0-1.829-3.646-0.808-3.646-3.979c0-1.354,0.725-2.494,2.778-2.494
	c1.995,0,2.708,1.021,2.708,2.316v0.201h-1.924c0-0.415-0.06-0.712-0.167-0.891c-0.118-0.201-0.319-0.296-0.604-0.296
	c-0.511,0-0.796,0.296-0.796,0.914c0,1.782,3.646,0.867,3.646,3.872c0,1.937-1.068,2.696-2.898,2.696
	c-1.46,0-2.791-0.438-2.791-2.209V30.257z M41.418,24.364h2.292l1.639,5.512h0.024v-5.512h1.853v8.481H44.97l-1.746-5.845h-0.024
	v5.845h-1.781V24.364z M35.48,24.364h4.905v1.616h-2.91v1.698h2.731v1.615h-2.731v1.937h3.041v1.615H35.48V24.364z M28.664,24.364
	h3.349c1.699,0,2.281,1.045,2.281,2.21c0,1.235-0.486,1.841-1.425,2.067v0.023c1.282,0.19,1.331,0.974,1.366,2.114
	c0.036,1.675,0.107,1.842,0.38,1.96v0.106h-2.149c-0.154-0.285-0.214-0.76-0.214-1.722c0-1.474-0.203-1.782-0.832-1.782h-0.761
	v3.504h-1.995V24.364z M22.061,24.364h3.09c2.103,0,2.506,1.521,2.506,2.578c0,1.521-0.725,2.59-2.72,2.59h-0.881v3.313h-1.995
	V24.364z M60.27,69.855H22.806c-0.754,0-1.365-0.752-1.365-1.679c0-0.926,0.611-1.678,1.365-1.678h37.462
	c0.756,0,1.365,0.752,1.365,1.678C61.633,69.104,61.023,69.855,60.27,69.855z M60.27,62.959H22.806
	c-0.754,0-1.365-0.752-1.365-1.676c0-0.926,0.611-1.678,1.365-1.678h37.462c0.756,0,1.365,0.752,1.365,1.678
	C61.634,62.207,61.023,62.959,60.27,62.959z M60.27,56.064H22.806c-0.754,0-1.365-0.754-1.365-1.681
	c0-0.924,0.611-1.676,1.365-1.676h37.462c0.756,0,1.365,0.752,1.365,1.676C61.634,55.311,61.023,56.064,60.27,56.064z M60.27,49.164
	H22.806c-0.754,0-1.365-0.75-1.365-1.676s0.611-1.678,1.365-1.678h37.462c0.756,0,1.365,0.752,1.365,1.678
	S61.023,49.164,60.27,49.164z M60.27,42.271H22.806c-0.754,0-1.365-0.752-1.365-1.679c0-0.926,0.611-1.678,1.365-1.678h37.462
	c0.756,0,1.365,0.752,1.365,1.678C61.633,41.52,61.023,42.271,60.27,42.271z"/>
</svg>
