<?xml version="1.0" encoding="utf-8"?>
<!-- Generator: Adobe Illustrator 16.0.0, SVG Export Plug-In . SVG Version: 6.00 Build 0)  -->
<!DOCTYPE svg PUBLIC "-//W3C//DTD SVG 1.1//EN" "http://www.w3.org/Graphics/SVG/1.1/DTD/svg11.dtd">
<svg version="1.1" id="Layer_1" xmlns="http://www.w3.org/2000/svg" xmlns:xlink="http://www.w3.org/1999/xlink" x="0px" y="0px"
	 width="63px" height="63px" viewBox="19 8.8 63 63" enable-background="new 19 8.8 63 63" xml:space="preserve">
<path fill="#FFFFFF" d="M64.646,53.353h1.027V18.502h-1.027V53.353z M63.617,12.37h-30.35c-1.133,0-2.059,0.927-2.059,2.058v43.21
	c0,1.133,0.926,2.059,2.059,2.059h30.35c1.132,0,2.058-0.926,2.058-2.059v-2.999h-1.028v2.999c0,0.568-0.461,1.029-1.028,1.029
	H33.268c-0.567,0-1.029-0.461-1.029-1.029V14.427c0-0.567,0.462-1.029,1.029-1.029h30.351c0.567,0,1.028,0.461,1.028,1.029v2.788
	h1.028v-2.788C65.675,13.297,64.749,12.37,63.617,12.37z M67.348,11.3v5.916h1.221v1.286h-1.221v34.851h1.221v1.286h-1.221V69.3
	h2.442v-58H67.348z M63.23,57.366V14.7H33.652v42.667H63.23L63.23,57.366z"/>
</svg>
