<?xml version="1.0" encoding="utf-8"?>
<!-- Generator: Adobe Illustrator 16.0.0, SVG Export Plug-In . SVG Version: 6.00 Build 0)  -->
<!DOCTYPE svg PUBLIC "-//W3C//DTD SVG 1.1//EN" "http://www.w3.org/Graphics/SVG/1.1/DTD/svg11.dtd">
<svg version="1.1" id="Layer_1" xmlns="http://www.w3.org/2000/svg" xmlns:xlink="http://www.w3.org/1999/xlink" x="0px" y="0px"
	 width="32.691px" height="58px" viewBox="35.154 11.3 32.691 58" enable-background="new 35.154 11.3 32.691 58"
	 xml:space="preserve">
<path fill="#FFFFFF" d="M67.686,14.16c-0.313-0.515-0.984-0.678-1.504-0.365l-1.102,0.678c-4.678,2.886-5.934,3.668-10.993-0.581
	c-3.96-3.329-7.088-2.736-8.593-2.088c-2.319,0.998-3.982,3.44-4.139,6.082c-0.157,2.572,1.308,5.347,2.601,7.796
	c0.871,1.649,1.771,3.356,1.771,4.361v2.876c0,0.037,0.019,0.072,0.022,0.108c-5.933,0.551-10.595,5.482-10.595,11.561v13.046
	c0,6.441,5.224,11.666,11.668,11.666c6.443,0,11.666-5.225,11.666-11.666V44.588c0-6.077-4.661-11.01-10.596-11.561
	c0.006-0.036,0.021-0.071,0.021-0.108v-2.876c0-1.548-0.938-3.324-2.023-5.384c-1.156-2.194-2.47-4.683-2.354-6.643
	c0.111-1.835,1.245-3.522,2.818-4.2c1.795-0.779,4.052-0.157,6.324,1.75c6.027,5.065,8.369,3.965,13.547,0.77l1.096-0.673
	C67.836,15.35,68,14.676,67.686,14.16z M46.822,35.877c1.611,0,2.916,1.305,2.916,2.917v7.777c0,1.612-1.303,2.916-2.916,2.916
	c-1.612,0-2.918-1.304-2.918-2.916v-7.777C43.904,37.182,45.21,35.877,46.822,35.877z"/>
</svg>
