<?xml version="1.0" encoding="utf-8"?>
<!-- Generator: Adobe Illustrator 16.0.0, SVG Export Plug-In . SVG Version: 6.00 Build 0)  -->
<!DOCTYPE svg PUBLIC "-//W3C//DTD SVG 1.1//EN" "http://www.w3.org/Graphics/SVG/1.1/DTD/svg11.dtd">
<svg version="1.1" id="Layer_1" xmlns="http://www.w3.org/2000/svg" xmlns:xlink="http://www.w3.org/1999/xlink" x="0px" y="0px"
	 width="63px" height="63px" viewBox="0 0 63 63" enable-background="new 0 0 63 63" xml:space="preserve">
<path fill="#FFFFFF" d="M79.811,41.917c-0.567-0.974-12.498-22.641-13.797-24.345c-1.298-1.705-3.246-1.705-5.111,0.405
	c-1.867,2.11-30.756,31.082-30.756,31.082s-4.301,0.242-5.6,0.162c-1.297-0.082-2.616,1.067-1.785,2.924
	c1.505,3.354,4.545,8.682,5.682,10.387c1.135,1.703,2.678,2.84,4.219,0c1.542-2.842,1.461-5.355,3.166-5.031
	c1.701,0.324,11.359-2.678,12.091-2.84c0.813,1.865,1.785,6.41,4.869,5.438c3.084-0.974,9.021-2.76,11.125-3.328
	c2.104-0.567,2.833-1.705,2.347-3.084s-1.307-4.082-1.307-4.082S78.592,45.404,79.811,45C81.027,44.596,80.377,42.891,79.811,41.917
	z M61.632,54.82c0,0-4.625,1.298-5.762,1.623c-1.138,0.324-3.57,1.785-5.031-2.842l11.929-3.488
	C62.768,50.111,64.716,53.928,61.632,54.82z"/>
</svg>
