<?xml version="1.0" encoding="utf-8"?>
<!-- Generator: Adobe Illustrator 16.0.0, SVG Export Plug-In . SVG Version: 6.00 Build 0)  -->
<!DOCTYPE svg PUBLIC "-//W3C//DTD SVG 1.1//EN" "http://www.w3.org/Graphics/SVG/1.1/DTD/svg11.dtd">
<svg version="1.1" id="Layer_1" xmlns="http://www.w3.org/2000/svg" xmlns:xlink="http://www.w3.org/1999/xlink" x="0px" y="0px"
	 width="120px" height="100px" viewBox="-10 0 120 100" enable-background="new -10 0 120 100" xml:space="preserve">
<path fill="#FFFFFF" d="M52.609,21.834c0.33,0,0.63-0.124,0.858-0.312c1.315,1.055,3.8,3.023,6.364,4.953
	c0.927,0.704,1.813,1.462,2.707,2.098c0.911,0.605,1.819,1.101,2.626,1.488c1.604,0.792,2.833,1.112,2.833,1.111l0.114-0.146
	c0-0.002-0.709-0.982-2.012-2.15c-0.644-0.592-1.431-1.239-2.343-1.854c-0.926-0.589-1.977-1.137-2.988-1.737
	c-2.76-1.653-5.534-3.229-7.03-4.068c0.121-0.189,0.213-0.396,0.213-0.631c0-0.689-0.606-1.249-1.348-1.249
	c-0.748,0-1.353,0.558-1.353,1.249C51.257,21.276,51.86,21.834,52.609,21.834z M71.529,32.972H25.473
	c-3.289,0-5.971,2.483-5.971,5.519v23.252c0,3.033,2.684,5.518,5.971,5.518h46.057c3.281,0,5.971-2.484,5.971-5.518V38.486
	C77.496,35.456,74.811,32.972,71.529,32.972z M36.236,59.593c-1.468,2.787-5.104,3.944-8.115,2.585
	c-3.012-1.358-4.265-4.716-2.797-7.505c1.469-2.782,5.105-3.94,8.119-2.581c0.777,0.352,1.436,0.842,1.963,1.422l3.591-0.57
	l-2.618,2.076C37.006,56.448,37.025,58.101,36.236,59.593z M73.195,42.845c0,1.013-0.89,1.841-1.986,1.841h-9.56l-1.353-3.443
	l-1.345,3.443H25.789c-1.093,0-1.991-0.828-1.991-1.841v-3.203c0-1.01,0.898-1.837,1.991-1.837h45.42
	c1.096,0,1.986,0.827,1.986,1.837V42.845L73.195,42.845z"/>
</svg>
