<?xml version="1.0" encoding="utf-8"?>
<!-- Generator: Adobe Illustrator 16.0.0, SVG Export Plug-In . SVG Version: 6.00 Build 0)  -->
<!DOCTYPE svg PUBLIC "-//W3C//DTD SVG 1.1//EN" "http://www.w3.org/Graphics/SVG/1.1/DTD/svg11.dtd">
<svg version="1.1" id="Layer_1" xmlns="http://www.w3.org/2000/svg" xmlns:xlink="http://www.w3.org/1999/xlink" x="0px" y="0px"
	 width="120px" height="100px" viewBox="-30 -20 120 100" enable-background="new -30 -20 120 100" xml:space="preserve">
<path fill="#FFFFFF" d="M57.421,27.105c-4.889,0.147-9.238,1.93-12.147,4.66h25.614c-2.32-2.182-5.562-3.757-9.261-4.379
	l10.899-8.432c0.486-0.375,0.483-0.983-0.001-1.357c-0.486-0.375-1.271-0.374-1.756,0.002l-11.071,8.563l-15.686-12.57
	c-0.479-0.381-1.265-0.392-1.757-0.024c-0.496,0.368-0.511,0.975-0.034,1.355L57.421,27.105z M29.973,71.3
	c1.577,0,2.858-0.986,2.858-2.206h-5.718C27.113,70.313,28.394,71.3,29.973,71.3z M67.859,71.3c1.579,0,2.856-0.986,2.856-2.206H65
	C65,70.313,66.28,71.3,67.859,71.3z M72.527,32.583H24.473c-2.734,0-4.97,1.726-4.97,3.837V63.94c0,2.108,2.238,3.836,4.97,3.836
	h48.055c2.733,0,4.973-1.728,4.973-3.836v-27.52C77.5,34.309,75.261,32.583,72.527,32.583z M65.007,66.087
	c-0.957,0-1.733-0.6-1.733-1.338c0-0.739,0.776-1.338,1.733-1.338s1.732,0.599,1.732,1.338
	C66.739,65.487,65.964,66.087,65.007,66.087z M69.841,66.087c-0.957,0-1.733-0.6-1.733-1.338c0-0.739,0.776-1.338,1.733-1.338
	c0.956,0,1.733,0.599,1.733,1.338C71.574,65.487,70.797,66.087,69.841,66.087z M72.323,59.036c0,1.732-1.839,3.15-4.085,3.15H28.762
	c-2.247,0-4.084-1.418-4.084-3.15v-20.16c0-1.732,1.837-3.152,4.084-3.152l39.477,0.001c2.245,0,4.082,1.417,4.082,3.151v20.16
	H72.323z"/>
</svg>
